<svg width="20" height="20" viewBox="0 0 20 20" fill="none" xmlns="http://www.w3.org/2000/svg">
<g clip-path="url(#clip0_557_7687)">
<mask id="mask0_557_7687" style="mask-type:luminance" maskUnits="userSpaceOnUse" x="0" y="0" width="20" height="20">
<path d="M20 0H0V20H20V0Z" fill="white"/>
</mask>
<g mask="url(#mask0_557_7687)">
<path d="M19.4225 8.94793L11.8885 0.471928C11.6359 0.194763 11.2855 0.0265867 10.9112 0.00289151C10.5369 -0.0208037 10.1681 0.101836 9.88252 0.344928C9.60851 0.601622 9.44492 0.954715 9.42626 1.32972C9.40761 1.70472 9.53534 2.0723 9.78252 2.35493L15.2265 8.47593H1.41252C1.04441 8.48572 0.694666 8.63884 0.437766 8.90267C0.180866 9.16649 0.0371094 9.52019 0.0371094 9.88843C0.0371094 10.2567 0.180866 10.6104 0.437766 10.8742C0.694666 11.138 1.04441 11.2911 1.41252 11.3009H15.2285L9.78452 17.4229C9.53958 17.7072 9.41466 18.0755 9.43611 18.4502C9.45757 18.8248 9.62373 19.1765 9.89952 19.4309C10.1823 19.6744 10.5491 19.7977 10.9215 19.7743C11.2939 19.751 11.6424 19.5829 11.8925 19.3059L19.4255 10.8299C19.6541 10.5696 19.7802 10.2349 19.7802 9.88843C19.7802 9.54195 19.6541 9.2073 19.4255 8.94693" fill="#016BC3"/>
</g>
</g>
<defs>
<clipPath id="clip0_557_7687">
<rect width="20" height="20" fill="white"/>
</clipPath>
</defs>
</svg>
