<svg width="34" height="28" viewBox="0 0 34 28" fill="none" xmlns="http://www.w3.org/2000/svg">
<g clip-path="url(#clip0_347_7166)">
<path d="M30.8775 5.19177e-05H2.45659C2.1334 -0.00205601 1.81301 0.0600445 1.51402 0.18275C1.21503 0.305456 0.943386 0.486323 0.714855 0.714854C0.486323 0.943385 0.305457 1.21503 0.182751 1.51402C0.060045 1.81301 -0.00205601 2.1334 5.19173e-05 2.45659V25.5435C0.00177638 26.1945 0.261143 26.8183 0.721459 27.2786C1.18177 27.739 1.8056 27.9983 2.45659 28H30.8421C31.493 27.9983 32.1169 27.739 32.5772 27.2786C33.0375 26.8183 33.2969 26.1945 33.2986 25.5435V2.45659C33.3046 2.13533 33.2463 1.81613 33.1272 1.51772C33.0081 1.2193 32.8305 0.9477 32.605 0.718857C32.3794 0.490014 32.1104 0.308544 31.8138 0.185106C31.5171 0.061669 31.1988 -0.00124701 30.8775 5.19177e-05ZM10.5309 2.52659C10.7391 2.52659 10.9426 2.58833 11.1158 2.70401C11.2889 2.8197 11.4238 2.98412 11.5035 3.1765C11.5832 3.36887 11.604 3.58055 11.5634 3.78478C11.5228 3.989 11.4225 4.17659 11.2753 4.32383C11.1281 4.47106 10.9405 4.57133 10.7362 4.61196C10.532 4.65258 10.3203 4.63173 10.128 4.55204C9.93559 4.47236 9.77116 4.33742 9.65548 4.16429C9.5398 3.99116 9.47805 3.78761 9.47805 3.57939C9.47554 3.44083 9.5009 3.30319 9.55262 3.17462C9.60435 3.04606 9.68138 2.92921 9.77915 2.831C9.87692 2.7328 9.99343 2.65524 10.1218 2.60295C10.2501 2.55065 10.3876 2.52469 10.5262 2.52659H10.5309ZM7.30245 2.52659C7.51068 2.52659 7.71422 2.58833 7.88736 2.70401C8.06049 2.8197 8.19543 2.98412 8.27511 3.1765C8.3548 3.36887 8.37565 3.58055 8.33502 3.78478C8.2944 3.989 8.19413 4.17659 8.04689 4.32383C7.89966 4.47106 7.71207 4.57133 7.50784 4.61196C7.30362 4.65258 7.09194 4.63173 6.89956 4.55204C6.70719 4.47236 6.54276 4.33742 6.42708 4.16429C6.3114 3.99116 6.24965 3.78761 6.24965 3.57939C6.25039 3.30104 6.36103 3.03424 6.5575 2.83707C6.75398 2.6399 7.02037 2.52831 7.29872 2.52659H7.30245ZM4.07405 2.52659C4.28228 2.52659 4.48582 2.58833 4.65896 2.70401C4.83209 2.8197 4.96703 2.98412 5.04671 3.1765C5.1264 3.36887 5.14725 3.58055 5.10662 3.78478C5.066 3.989 4.96573 4.17659 4.81849 4.32383C4.67126 4.47106 4.48367 4.57133 4.27944 4.61196C4.07522 4.65258 3.86354 4.63173 3.67116 4.55204C3.47879 4.47236 3.31436 4.33742 3.19868 4.16429C3.083 3.99116 3.02125 3.78761 3.02125 3.57939C3.02199 3.30104 3.13263 3.03424 3.3291 2.83707C3.52558 2.6399 3.79197 2.52831 4.07032 2.52659H4.07405ZM30.2457 24.7334C30.247 24.7568 30.2434 24.7802 30.2351 24.8021C30.2267 24.824 30.2138 24.8439 30.1973 24.8605C30.1807 24.877 30.1608 24.8899 30.1389 24.8983C30.117 24.9066 30.0936 24.9102 30.0702 24.9088H3.26672C3.24332 24.9102 3.2199 24.9066 3.198 24.8983C3.1761 24.8899 3.15621 24.877 3.13963 24.8605C3.12306 24.8439 3.11018 24.824 3.10184 24.8021C3.09351 24.7802 3.0899 24.7568 3.09125 24.7334V7.18672H30.2139V24.7334H30.2457Z" fill="#9FD3FF"/>
<path d="M8.80677 15.4036C9.96966 15.4036 10.9124 14.4609 10.9124 13.298C10.9124 12.1351 9.96966 11.1924 8.80677 11.1924C7.64388 11.1924 6.70117 12.1351 6.70117 13.298C6.70117 14.4609 7.64388 15.4036 8.80677 15.4036Z" fill="#9FD3FF"/>
<path d="M6.63142 20.9476H10.9472C11.0256 20.9482 11.1035 20.9332 11.1761 20.9035C11.2488 20.8737 11.3148 20.8298 11.3703 20.7743C11.4258 20.7188 11.4697 20.6528 11.4994 20.5802C11.5292 20.5075 11.5442 20.4297 11.5436 20.3512V18.4211C11.5438 18.1169 11.4841 17.8157 11.3678 17.5346C11.2515 17.2536 11.0809 16.9982 10.8659 16.7831C10.6508 16.5681 10.3954 16.3975 10.1144 16.2812C9.83333 16.165 9.53211 16.1052 9.22795 16.1055H8.35062C8.04646 16.1052 7.74524 16.165 7.46419 16.2812C7.18313 16.3975 6.92777 16.5681 6.71269 16.7831C6.49762 16.9982 6.32707 17.2536 6.21078 17.5346C6.0945 17.8157 6.03477 18.1169 6.03502 18.4211V20.3157C6.03072 20.3969 6.04294 20.478 6.07094 20.5543C6.09893 20.6305 6.14212 20.7003 6.19788 20.7594C6.25365 20.8185 6.32082 20.8656 6.39534 20.898C6.46987 20.9303 6.55018 20.9472 6.63142 20.9476Z" fill="#9FD3FF"/>
<path d="M24.5275 15.4036C25.6904 15.4036 26.6331 14.4609 26.6331 13.298C26.6331 12.1351 25.6904 11.1924 24.5275 11.1924C23.3646 11.1924 22.4219 12.1351 22.4219 13.298C22.4219 14.4609 23.3646 15.4036 24.5275 15.4036Z" fill="#9FD3FF"/>
<path d="M22.3858 20.9476H26.7015C26.78 20.9482 26.8579 20.9332 26.9305 20.9035C27.0031 20.8737 27.0691 20.8298 27.1246 20.7743C27.1801 20.7188 27.2241 20.6528 27.2538 20.5802C27.2836 20.5075 27.2986 20.4297 27.2979 20.3512V18.4211C27.2982 18.1169 27.2385 17.8157 27.1222 17.5346C27.0059 17.2536 26.8353 16.9982 26.6203 16.7831C26.4052 16.5681 26.1498 16.3975 25.8688 16.2812C25.5877 16.165 25.2865 16.1052 24.9823 16.1055H24.105C23.8008 16.1052 23.4996 16.165 23.2186 16.2812C22.9375 16.3975 22.6822 16.5681 22.4671 16.7831C22.252 16.9982 22.0815 17.2536 21.9652 17.5346C21.8489 17.8157 21.7892 18.1169 21.7894 18.4211V20.3157C21.7821 20.3975 21.7922 20.4799 21.8191 20.5575C21.846 20.6351 21.8891 20.7061 21.9455 20.7658C22.0018 20.8256 22.0702 20.8726 22.1461 20.904C22.222 20.9353 22.3037 20.9502 22.3858 20.9476Z" fill="#9FD3FF"/>
<path d="M13.7194 14.666H18.1752L17.5788 15.2624C17.521 15.316 17.4749 15.381 17.4434 15.4533C17.4119 15.5256 17.3956 15.6035 17.3956 15.6824C17.3956 15.7612 17.4119 15.8392 17.4434 15.9115C17.4749 15.9838 17.521 16.0488 17.5788 16.1024C17.6338 16.1577 17.6993 16.2016 17.7714 16.2315C17.8435 16.2615 17.9207 16.2769 17.9988 16.2769C18.0768 16.2769 18.1541 16.2615 18.2262 16.2315C18.2983 16.2016 18.3637 16.1577 18.4188 16.1024L20.0325 14.4887C20.0903 14.435 20.1364 14.37 20.1679 14.2978C20.1994 14.2255 20.2157 14.1475 20.2157 14.0687C20.2157 13.9898 20.1994 13.9118 20.1679 13.8396C20.1364 13.7673 20.0903 13.7023 20.0325 13.6487L18.4188 12.0695C18.305 11.9708 18.158 11.9189 18.0075 11.9242C17.857 11.9295 17.7141 11.9917 17.6076 12.0982C17.5011 12.2047 17.4389 12.3477 17.4335 12.4982C17.4282 12.6487 17.4801 12.7957 17.5788 12.9095L18.1752 13.5059H13.7194C13.5628 13.5105 13.4138 13.5749 13.3029 13.6857C13.1921 13.7966 13.1277 13.9456 13.123 14.1023C13.1284 14.2557 13.194 14.401 13.3056 14.5065C13.4172 14.612 13.5659 14.6693 13.7194 14.666Z" fill="#9FD3FF"/>
<path d="M14.9115 20.0345C14.9666 20.0898 15.032 20.1337 15.1041 20.1636C15.1762 20.1936 15.2534 20.209 15.3315 20.209C15.4095 20.209 15.4868 20.1936 15.5589 20.1636C15.631 20.1337 15.6964 20.0898 15.7515 20.0345C15.8093 19.9809 15.8554 19.9159 15.8869 19.8436C15.9184 19.7713 15.9347 19.6933 15.9347 19.6145C15.9347 19.5356 15.9184 19.4577 15.8869 19.3854C15.8554 19.3131 15.8093 19.2481 15.7515 19.1945L15.1551 18.5962H19.6108C19.769 18.5962 19.9207 18.5334 20.0325 18.4215C20.1444 18.3097 20.2072 18.158 20.2072 17.9998C20.2072 17.8416 20.1444 17.69 20.0325 17.5781C19.9207 17.4663 19.769 17.4034 19.6108 17.4034H15.1224L15.7188 16.807C15.7806 16.7535 15.8306 16.6877 15.8659 16.614C15.9012 16.5402 15.9209 16.46 15.9238 16.3783C15.9267 16.2966 15.9127 16.2152 15.8828 16.1391C15.8528 16.063 15.8075 15.9939 15.7497 15.9361C15.6919 15.8783 15.6228 15.833 15.5467 15.8031C15.4707 15.7732 15.3893 15.7592 15.3075 15.7621C15.2258 15.765 15.1456 15.7847 15.0719 15.8199C14.9981 15.8552 14.9324 15.9053 14.8788 15.967L13.2623 17.577C13.2045 17.6307 13.1584 17.6956 13.1269 17.7679C13.0954 17.8402 13.0791 17.9182 13.0791 17.997C13.0791 18.0759 13.0954 18.1539 13.1269 18.2261C13.1584 18.2984 13.2045 18.3634 13.2623 18.417L14.9115 20.0345Z" fill="#9FD3FF"/>
</g>
<defs>
<clipPath id="clip0_347_7166">
<rect width="33.2995" height="28" fill="white"/>
</clipPath>
</defs>
</svg>
