<svg width="25" height="25" viewBox="0 0 25 25" fill="none" xmlns="http://www.w3.org/2000/svg">
<g clip-path="url(#clip0_347_4494)">
<path d="M20 0H5C2.23857 0 0 2.23859 0 5V20C0 22.7614 2.23857 25 5 25H20C22.7614 25 25 22.7614 25 20V5C25 2.23857 22.7614 0 20 0ZM8.36599 19H5.24798V8.978H8.36599V19ZM6.79999 7.59999C5.80588 7.59999 4.99998 6.79409 4.99998 5.79999C4.99998 4.80588 5.80588 3.99998 6.79999 3.99998C7.79297 4.00273 8.59725 4.80701 8.6 5.79999C8.6 6.79409 7.7941 7.59999 6.79999 7.59999ZM20.028 19H16.916V14.125C16.916 12.962 16.893 11.467 15.299 11.467C13.677 11.467 13.429 12.733 13.429 14.04V19H10.316V8.978H13.3V10.347H13.342C13.9527 9.30604 15.086 8.68485 16.292 8.73C19.442 8.73 20.028 10.807 20.028 13.507L20.028 19Z" fill="#003A6A"/>
</g>
<defs>
<clipPath id="clip0_347_4494">
<rect width="25" height="25" fill="white"/>
</clipPath>
</defs>
</svg>
