<svg width="25" height="25" viewBox="0 0 25 25" fill="none" xmlns="http://www.w3.org/2000/svg">
<g clip-path="url(#clip0_347_4497)">
<path d="M20 0H5C2.23857 0 0 2.23857 0 5V20C0 22.7614 2.23857 25 5 25H10.324V16.251H7.144V12.631H10.324V9.87199C10.324 6.73298 12.194 5.00099 15.053 5.00099C15.992 5.01384 16.9289 5.09539 17.856 5.245V8.32599H16.277C16.1444 8.30838 16.0102 8.30554 15.877 8.31749C14.8814 8.40682 14.1467 9.28636 14.236 10.282V12.631H17.709L17.154 16.251H14.236V25H20C22.7614 25 25 22.7614 25 20V5C25 2.23857 22.7614 0 20 0Z" fill="#003A6A"/>
</g>
<defs>
<clipPath id="clip0_347_4497">
<rect width="25" height="25" fill="white"/>
</clipPath>
</defs>
</svg>
