<svg width="25" height="25" viewBox="0 0 25 25" fill="none" xmlns="http://www.w3.org/2000/svg">
<g clip-path="url(#clip0_347_4500)">
<path d="M20 0H5C2.23857 0 0 2.23857 0 5V20C0 22.7614 2.23857 25 5 25H20C22.7614 25 25 22.7614 25 20V5C25 2.23857 22.7614 0 20 0ZM21.227 7.65801C20.7527 8.36762 20.1557 8.98698 19.464 9.487C19.4707 9.63833 19.474 9.79068 19.474 9.944C19.4743 9.99016 19.4743 10.0363 19.474 10.0825C19.4358 15.598 14.9335 20.0382 9.41798 20C7.49693 20.0021 5.61596 19.4507 3.99998 18.412C4.27776 18.4449 4.55723 18.4616 4.83698 18.462C6.42865 18.4646 7.9749 17.9317 9.22698 16.949C7.71571 16.9199 6.3898 15.9339 5.92697 14.495C6.45797 14.597 7.00529 14.5761 7.52698 14.434C5.87791 14.0995 4.69271 12.6496 4.69298 10.967V10.923C5.18345 11.1958 5.73205 11.3473 6.29298 11.365C4.74074 10.3272 4.26224 8.26169 5.2 6.647C6.99457 8.85509 9.64221 10.1975 12.484 10.34C12.1995 9.11309 12.5886 7.82743 13.5058 6.96425C14.9287 5.62513 17.1679 5.69306 18.507 7.116C19.2984 6.96003 20.0574 6.66984 20.751 6.258C20.4874 7.07664 19.935 7.77147 19.197 8.213C19.8976 8.13009 20.5819 7.94267 21.227 7.657V7.65801Z" fill="#003A6A"/>
</g>
<defs>
<clipPath id="clip0_347_4500">
<rect width="25" height="25" fill="white"/>
</clipPath>
</defs>
</svg>
