<svg width="78" height="78" viewBox="0 0 78 78" fill="none" xmlns="http://www.w3.org/2000/svg">
<path d="M40.4339 42.5094C42.2817 42.1908 44.1295 41.5536 45.7224 40.5342C43.7472 38.1766 40.9437 36.7112 37.8853 36.3926C35.8463 37.4758 33.5525 38.0492 31.2587 38.0492C28.9649 38.0492 26.6711 37.4758 24.6322 36.3926C18.5153 37.0935 13.9277 42.2545 13.9277 48.3713V55.5713C13.9277 56.1448 14.4375 56.6545 15.0109 56.6545H35.7189C35.6552 56.1448 35.6552 55.6988 35.6552 55.189V47.9253C35.7189 45.2492 37.7578 42.9554 40.4339 42.5094Z" fill="#016BC3"/>
<path d="M31.3226 33.9714C37.0937 33.9714 41.7722 29.293 41.7722 23.5218C41.7722 17.7507 37.0937 13.0723 31.3226 13.0723C25.5515 13.0723 20.873 17.7507 20.873 23.5218C20.873 29.293 25.5515 33.9714 31.3226 33.9714Z" fill="#016BC3"/>
<path d="M62.6077 46.3964C57.3192 45.5681 54.3883 43.1468 52.9865 41.5539C52.413 40.9167 51.3936 40.853 50.7564 41.4902L50.6927 41.5539C49.2272 43.2105 46.3599 45.5681 41.0715 46.3964C40.3069 46.5238 39.7334 47.161 39.7334 47.9893V55.3167C39.7334 63.4088 48.3989 69.1433 51.075 70.6725C51.5847 70.9911 52.1582 70.9911 52.6679 70.6725C55.344 69.0796 64.0095 63.345 64.0095 55.3167V47.9893C64.0095 47.2247 63.4361 46.5238 62.6077 46.3964ZM58.0201 53.8512L51.8396 60.0318C51.4573 60.4141 50.9476 60.6052 50.4378 60.6689C49.9281 60.6689 49.4184 60.4778 49.0361 60.0318L45.7865 56.7822C45.0219 56.0176 45.0219 54.7433 45.7865 53.9787C46.5511 53.2141 47.8254 53.2141 48.59 53.9787L50.4378 55.8265L55.2166 51.0477C55.9812 50.2831 57.1918 50.2831 57.9564 50.984C57.9564 50.984 57.9564 50.984 58.0201 51.0477C58.721 51.8123 58.721 53.0229 58.0201 53.8512Z" fill="#016BC3"/>
</svg>
