<svg width="31" height="32" viewBox="0 0 31 32" fill="none" xmlns="http://www.w3.org/2000/svg">
<g clip-path="url(#clip0_358_7066)">
<mask id="mask0_358_7066" style="mask-type:luminance" maskUnits="userSpaceOnUse" x="0" y="0" width="31" height="32">
<path d="M0 32H30.316V0H0V32Z" fill="white"/>
</mask>
<g mask="url(#mask0_358_7066)">
<path d="M30.3139 0.00195314V3.37075C30.3139 19.5828 21.2627 26.95 10.1035 26.95H3.77472C3.4903 28.6187 3.35377 30.3092 3.36672 32.002H-0.00207736C-0.0184153 29.892 0.177233 27.7856 0.581923 25.7148C0.139649 22.7795 -0.0557019 19.8123 -0.00207736 16.8444C-0.00218243 14.6325 0.433387 12.4424 1.27976 10.3989C2.12613 8.35546 3.36673 6.49873 4.93071 4.93474C6.4947 3.37076 8.35143 2.13016 10.3949 1.28379C12.4384 0.437418 14.6285 0.00184808 16.8403 0.00195314C20.2123 0.00195314 23.5771 1.68595 30.3139 0.00195314ZM16.8403 3.37075C13.2671 3.37139 9.8404 4.79113 7.31375 7.31778C4.7871 9.84443 3.36736 13.2711 3.36672 16.8444C3.36672 17.454 3.37152 18.0444 3.38752 18.6044C5.49232 15.2732 8.58912 12.642 12.6347 10.3292L14.3083 13.2532C9.49872 16.002 6.31152 19.122 4.67312 23.5812H10.1035C20.2347 23.5812 26.7283 16.8908 26.9403 4.02195C24.567 4.22218 22.1778 4.11625 19.8315 3.70675C18.8453 3.5134 17.8449 3.40102 16.8403 3.37075Z" fill="white"/>
</g>
</g>
<defs>
<clipPath id="clip0_358_7066">
<rect width="30.316" height="32" fill="white"/>
</clipPath>
</defs>
</svg>
