<svg width="78" height="78" viewBox="0 0 78 78" fill="none" xmlns="http://www.w3.org/2000/svg">
<path d="M15.5205 24.0899C15.393 24.2811 15.2019 24.536 15.0745 24.7908C15.9028 26.0652 17.3683 26.8935 18.8975 26.8935C21.4461 26.8935 23.5488 24.8545 23.5488 22.2421C23.5488 19.6298 21.5099 17.5908 18.8975 17.5908C17.3045 17.5908 15.8391 18.4191 15.0107 19.7572C16.2851 20.8404 16.4762 22.6882 15.5205 24.0899Z" fill="#016BC3"/>
<path d="M27.8179 34.2843C26.7984 30.1427 23.8037 28.04 18.8338 28.04C15.9665 28.04 13.609 27.8489 11.8249 27.7214C12.6532 26.1922 13.609 24.7905 14.5648 23.3887C15.2019 22.4967 15.0108 21.2223 14.1187 20.5852C13.2267 19.948 11.9524 20.1391 11.3152 21.0312C6.409 27.7214 7.10989 29.3144 7.42847 30.079C7.81077 30.9073 8.57537 31.417 9.46741 31.4807L10.0409 31.5444C11.124 31.6719 12.3984 31.7356 13.8639 31.863L13.8002 42.6312L13.2267 58.1144C13.163 59.325 14.1187 60.4082 15.3294 60.4719C15.3931 60.4719 15.3931 60.4719 15.4568 60.4719C16.7311 60.4719 17.7506 59.5161 17.8143 58.2418L18.2603 43.5869H19.0886L19.5347 58.2418C19.5984 59.4524 20.5541 60.4719 21.8285 60.4719H21.8922C23.1665 60.4719 24.1223 59.3887 24.1223 58.1781C24.1223 58.1781 24.1223 58.1781 24.1223 58.1144L23.6125 42.7586L23.4214 34.794C23.4851 34.9214 23.4851 35.1126 23.5488 35.24C23.9948 37.0241 24.8869 41.994 24.9506 42.0577C25.3329 43.0135 26.2249 43.6506 27.2444 43.7144C27.3718 43.7144 27.4993 43.7144 27.6267 43.6506C28.7099 43.4595 29.4108 42.3763 29.2196 41.2931C29.2196 41.1657 28.2639 36.2595 27.8179 34.2843Z" fill="#016BC3"/>
<path d="M36.292 24.0899C36.1645 24.2811 35.9734 24.536 35.8459 24.7908C36.6743 26.0652 38.1397 26.8935 39.669 26.8935C42.2176 26.8935 44.3203 24.8545 44.3203 22.2421C44.3203 19.6298 42.2813 17.5908 39.669 17.5908C38.076 17.5908 36.6105 18.4191 35.7822 19.7572C37.0566 20.7767 37.3114 22.6882 36.292 24.0899Z" fill="#016BC3"/>
<path d="M48.6528 34.2843C47.6333 30.1427 44.6387 28.04 39.6687 28.04C36.8015 28.04 34.444 27.8489 32.6599 27.7214C33.4882 26.1922 34.444 24.7905 35.3997 23.3887C36.0369 22.4967 35.8457 21.2223 34.9537 20.5852C34.0617 19.948 32.7873 20.1391 32.1502 21.0312C27.244 27.7214 27.9448 29.3144 28.2634 30.079C28.6457 30.9073 29.4103 31.417 30.3024 31.4807L30.8758 31.5444C31.959 31.6719 33.2333 31.7356 34.6988 31.863L34.6351 42.6312L34.1254 58.0506C34.0617 59.2613 35.0174 60.3444 36.228 60.4082C36.2917 60.4082 36.2918 60.4082 36.3555 60.4082C37.6298 60.4082 38.6493 59.4524 38.713 58.1781L39.159 43.5232H39.9873L40.4333 58.1781C40.4971 59.3887 41.4528 60.4082 42.7271 60.4082H42.7909C44.0652 60.4082 45.021 59.325 45.021 58.1144C45.021 58.1144 45.021 58.1144 45.021 58.0506L44.5112 42.6949L44.4475 34.7303C44.5112 34.8577 44.5112 35.0489 44.5749 35.1763C45.021 36.9604 45.913 41.9303 45.9767 41.994C46.2953 42.9498 47.1873 43.5869 48.2068 43.6506C48.3342 43.6506 48.4617 43.6506 48.5891 43.5869C49.6723 43.3958 50.3732 42.3126 50.182 41.2294C49.9909 41.1657 49.0988 36.2595 48.6528 34.2843Z" fill="#016BC3"/>
<path d="M57.1279 24.0899C57.0005 24.2811 56.8093 24.536 56.6819 24.7908C57.5102 26.0652 58.9757 26.8935 60.5049 26.8935C63.0536 26.8935 65.1562 24.8545 65.1562 22.2421C65.1562 19.6298 63.1173 17.5908 60.5049 17.5908C58.912 17.5908 57.4465 18.4191 56.6182 19.7572C57.8925 20.7767 58.1474 22.6882 57.1279 24.0899Z" fill="#016BC3"/>
<path d="M70.827 41.3576C70.7633 41.1664 69.8713 36.2602 69.4253 34.3487C68.4058 30.2071 65.4111 28.1045 60.4412 28.1045C57.5739 28.1045 55.2164 27.9133 53.4324 27.7859C54.2607 26.2567 55.2164 24.8549 56.1722 23.4531C56.8093 22.5611 56.6182 21.2868 55.7262 20.6496C54.8341 20.0124 53.5598 20.2036 52.9226 21.0956C48.0164 27.7859 48.7173 29.3788 49.0359 30.1434C49.4182 30.9717 50.1828 31.4815 51.0748 31.5452L51.6483 31.6089C52.7315 31.7363 54.0058 31.8 55.4713 31.9275L55.4076 42.6956L54.8978 58.1151C54.8341 59.3257 55.7899 60.4089 57.0005 60.4726C57.0642 60.4726 57.0642 60.4726 57.1279 60.4726C58.4023 60.4726 59.4217 59.5169 59.4855 58.2425L59.9315 43.5877H60.7598L61.2058 58.2425C61.2695 59.4531 62.2253 60.4726 63.4996 60.4726H63.5633C64.8377 60.4726 65.7934 59.3894 65.7934 58.1788C65.7934 58.1788 65.7934 58.1788 65.7934 58.1151L65.2837 42.7593L65.22 34.7947C65.2837 34.9222 65.2837 35.1133 65.3474 35.2408C65.7934 37.0248 66.6855 41.9947 66.7492 42.0585C66.9403 43.0142 67.7049 43.7151 68.6607 43.7151C68.7881 43.7151 68.9155 43.7151 69.043 43.6514C70.3173 43.4602 71.0819 42.4408 70.827 41.3576Z" fill="#016BC3"/>
</svg>
