<svg width="78" height="78" viewBox="0 0 78 78" fill="none" xmlns="http://www.w3.org/2000/svg">
<path d="M50.183 45.6258C50.183 43.8417 48.7175 42.3762 46.9335 42.3762H36.9299C36.4202 42.3762 35.9742 41.9939 35.9742 41.4842C35.9742 41.4205 35.9742 41.3567 35.9742 41.293C36.675 36.9603 37.5671 35.3674 38.0131 30.8435C38.3954 26.5107 32.2149 25.6824 31.3228 29.7603C29.6025 37.4063 23.3582 42.4399 21.2556 43.9691C20.8733 44.2877 20.6184 44.7975 20.5547 45.3072V63.4028C20.5547 64.0399 20.937 64.6134 21.5742 64.8683C23.8042 65.824 26.3529 67.8629 33.8078 67.8629H45.468C47.252 67.8629 48.7175 66.3975 48.7175 64.6134C48.7175 62.8293 47.3158 61.4275 45.5954 61.3638H45.5317H45.914C47.5706 61.4275 48.9724 60.2169 49.2273 58.624C49.4821 56.9037 48.2078 55.247 46.4874 55.0559C46.36 55.0559 46.2326 55.0559 46.1051 55.0559H46.4874C48.1441 55.1196 49.5458 53.909 49.8007 52.316C50.0556 50.5957 48.7812 48.939 47.0609 48.7479C46.9334 48.7479 46.806 48.7479 46.6786 48.7479H47.1246C48.7812 48.8116 50.2467 47.4736 50.2467 45.8169C50.183 45.7532 50.183 45.6895 50.183 45.6258Z" fill="#016BC3"/>
<path d="M16.6039 44.3516H8.76675C7.87471 44.3516 7.17383 45.0524 7.17383 45.9445V62.7657C7.17383 63.6578 7.87471 64.3586 8.76675 64.3586H16.6039C17.496 64.3586 18.1968 63.6578 18.1968 62.7657V46.0719C18.1968 45.1162 17.496 44.4153 16.6039 44.3516ZM12.7172 60.8542C11.7614 60.8542 10.9968 60.0896 10.9968 59.1339C10.9968 58.1781 11.7614 57.4135 12.7172 57.4135C13.6729 57.4135 14.4375 58.1781 14.4375 59.1339C14.4375 60.0896 13.6729 60.8542 12.7172 60.8542Z" fill="#016BC3"/>
<path d="M57.7653 10.0723C50.5653 10.0723 44.7034 15.9342 44.7034 23.1342C44.7034 25.1094 45.1494 27.0209 45.9777 28.7413L43.6202 35.1767C43.3653 35.7501 43.6839 36.451 44.3211 36.6422C44.5122 36.7059 44.7671 36.7059 44.9583 36.7059L52.6043 35.1767C54.2609 35.8776 55.9813 36.2599 57.7653 36.2599C65.0291 36.2599 70.891 30.3979 70.891 23.1342C70.891 15.9342 65.0291 10.0723 57.7653 10.0723ZM63.0538 24.2174C63.0538 24.536 62.799 24.7271 62.5441 24.7271H59.4857V27.8493C59.4857 28.1678 59.2308 28.359 58.976 28.359H56.8096C56.491 28.359 56.2999 28.1041 56.2999 27.8493V24.7909H53.2415C52.9229 24.7909 52.7317 24.536 52.7317 24.2811V22.1147C52.7317 21.7962 52.9866 21.605 53.2415 21.605H56.2999V18.5466C56.2999 18.228 56.5547 18.0369 56.8096 18.0369H58.976C59.2945 18.0369 59.4857 18.2917 59.4857 18.5466V21.605H62.4804C62.799 21.605 62.9901 21.8599 62.9901 22.1147V24.2811L63.0538 24.2174Z" fill="#016BC3"/>
</svg>
