<svg width="97" height="97" viewBox="0 0 97 97" fill="none" xmlns="http://www.w3.org/2000/svg">
<g clip-path="url(#clip0_347_7185)">
<path d="M16.0651 57.3271L12.9971 77.1615H21.8728L24.3935 60.3952L18.5858 58.5323C17.6786 58.2891 16.824 57.8806 16.0651 57.3271Z" fill="#016BC3"/>
<path d="M8.06445 46.9157C8.3851 47.0053 8.7183 47.0416 9.05064 47.023C10.6784 47.0358 12.114 45.9592 12.5576 44.3929L14.5299 37.3801L18.3652 35.5172L16.9412 49.4365C16.7008 51.5144 17.9988 53.4615 20.0092 54.039L32.0635 57.8711L32.1708 68.6097H40.937L40.7224 54.6926C40.7238 52.8064 39.47 51.1496 37.6544 50.6384L29.9838 48.2271L32.1751 38.5841L35.7915 43.2961C36.7209 44.4209 38.2029 44.9289 39.6268 44.6107L47.9552 42.5289C49.8917 42.0447 51.069 40.0823 50.5848 38.1457C50.1007 36.2092 48.1383 35.0319 46.2017 35.5161L40.1719 37.0528L35.6788 31.0262C35.5715 30.8116 35.3504 30.6978 35.241 30.4778C34.0303 29.3893 32.5573 28.6341 30.9668 28.2865L24.1729 26.8582C22.134 26.4535 20.0188 26.7227 18.1463 27.6255L10.0368 31.5703C9.08412 32.0244 8.36771 32.86 8.06445 33.871L5.64995 42.4183C5.08829 44.3235 6.16311 46.3263 8.06123 46.9114" fill="#016BC3"/>
<path d="M97.8133 55.4645H67.0204C65.5222 55.4496 64.2956 56.652 64.2807 58.1503C64.2805 58.1683 64.2805 58.1862 64.2807 58.2042V64.1214H48.8279C47.3298 64.1065 46.1032 65.3089 46.0883 66.8072C46.0881 66.8252 46.0881 66.8431 46.0883 66.8611V72.6688H30.6355C29.1373 72.6539 27.9108 73.8563 27.8958 75.3546C27.8956 75.3726 27.8956 75.3905 27.8958 75.4086V81.3268H12.4431C10.9449 81.3119 9.71832 82.5143 9.7034 84.0126C9.70319 84.0305 9.70319 84.0485 9.7034 84.0664V91.5213H-0.813083C-2.32617 91.5213 -3.55273 92.7479 -3.55273 94.261C-3.55273 95.7741 -2.32617 97.0006 -0.813083 97.0006H12.4484C13.9466 97.0155 15.1732 95.8131 15.1881 94.3148C15.1883 94.2969 15.1883 94.2789 15.1881 94.261V86.805H30.6409C32.139 86.8199 33.3656 85.6175 33.3805 84.1193C33.3807 84.1013 33.3807 84.0834 33.3805 84.0653V78.1482H48.8333C50.3315 78.1631 51.558 76.9607 51.573 75.4624C51.5732 75.4444 51.5732 75.4265 51.573 75.4085V69.4913H67.0257C68.5239 69.5062 69.7505 68.3038 69.7654 66.8056C69.7656 66.7875 69.7656 66.7696 69.7654 66.7516V60.8301H97.8133C99.3115 60.8451 100.538 59.6426 100.553 58.1444C100.553 58.1263 100.553 58.1084 100.553 58.0904C100.556 56.6419 99.3845 55.4651 97.9361 55.4619C97.8951 55.4619 97.8542 55.4627 97.8133 55.4645Z" fill="#016BC3"/>
<path d="M30.4196 10.4258C34.6559 10.4258 38.0902 13.8601 38.0902 18.0964C38.0902 22.3327 34.6559 25.767 30.4196 25.767C26.1833 25.767 22.749 22.3327 22.749 18.0964C22.749 13.8601 26.1833 10.4258 30.4196 10.4258Z" fill="#016BC3"/>
<path d="M73.0477 19.6295C73.3963 20.4617 74.2282 20.9871 75.1295 20.9441C75.4379 20.978 75.7484 20.902 76.0062 20.7295C77.1106 20.2602 77.6438 18.9996 77.2113 17.8804L74.9106 12.3968C74.4566 11.2763 73.1803 10.7361 72.0599 11.1901C70.9394 11.6441 70.3992 12.9203 70.8531 14.0408L73.0477 19.6295Z" fill="#016BC3"/>
<path d="M91.7871 20.836C92.0644 20.9586 92.3613 21.0312 92.6639 21.0506C93.5433 21.0171 94.3375 20.5157 94.7457 19.7361L97.0465 14.2568C97.4585 13.1208 96.8715 11.8658 95.7355 11.4538C94.6576 11.0629 93.4605 11.5704 92.9922 12.6171L90.6904 18.0964C90.1668 18.9813 90.4597 20.1232 91.3447 20.6468C91.483 20.7287 91.6325 20.7922 91.7871 20.836Z" fill="#016BC3"/>
<path d="M83.8965 19.3024C85.1052 19.2989 86.0842 18.3199 86.0878 17.1111V11.1918C86.0878 9.98136 85.1064 9 83.8959 9C82.6855 9 81.7041 9.98136 81.7041 11.1918V17.11C81.7456 18.3032 82.7033 19.2609 83.8965 19.3024Z" fill="#016BC3"/>
<path d="M75.4594 39.4686C76.0875 39.9601 76.3488 40.7872 76.1172 41.5504L74.9121 46.8086C74.6321 47.9433 75.3249 49.0902 76.4596 49.3702C77.0159 49.5075 77.604 49.4134 78.0896 49.1094L82.6922 46.2603C83.3569 45.822 84.2188 45.822 84.8835 46.2603L89.4861 49.1094C90.4766 49.7295 91.7825 49.4293 92.4027 48.4387C92.7067 47.9531 92.8008 47.3649 92.6635 46.8086L91.4584 41.5504C91.2637 40.7878 91.5186 39.9807 92.1163 39.4686L96.2799 35.9616C97.1686 35.1952 97.2675 33.8535 96.5011 32.965C96.139 32.5452 95.6271 32.2835 95.0748 32.2358L89.5955 31.798C88.8052 31.7379 88.1214 31.2251 87.8421 30.4834L85.7602 25.4398C85.3066 24.3505 84.0558 23.8352 82.9665 24.2888C82.4459 24.5055 82.0322 24.9192 81.8155 25.4398L79.7336 30.4834C79.4283 31.2053 78.7586 31.7073 77.9802 31.798L72.5009 32.2358C71.3317 32.3367 70.4657 33.3662 70.5666 34.5354C70.6142 35.0877 70.8759 35.5996 71.2958 35.9616L75.4594 39.4686Z" fill="#016BC3"/>
</g>
<defs>
<clipPath id="clip0_347_7185">
<rect width="97" height="97" fill="white"/>
</clipPath>
</defs>
</svg>
