<svg width="78" height="78" viewBox="0 0 78 78" fill="none" xmlns="http://www.w3.org/2000/svg">
<path d="M33.7339 51.2342C33.7977 50.7882 33.9888 50.3421 34.1162 49.9598C31.695 50.3421 28.764 50.6607 27.5534 50.2147C26.8525 49.8961 25.2596 48.0483 24.3039 47.1563C23.4118 46.2005 22.7109 45.4359 21.9463 44.6713C20.6083 43.397 19.6525 42.4413 17.8047 42.059C15.5109 41.3581 9.84014 40.7846 8.1835 44.5439C6.52686 48.4944 6.84545 58.8165 6.90917 66.2076C6.84545 66.7811 7.35518 67.2908 7.92863 67.3545H7.99235H20.1623C20.672 67.4182 21.1817 67.0359 21.2454 66.4625C21.2454 66.3988 21.2454 66.3351 21.2454 66.3351C21.3092 66.0165 21.6915 58.9439 21.9463 53.974C22.9658 55.0572 24.1764 55.8855 25.5782 56.3952C26.9162 56.7775 28.318 56.9687 29.6561 56.905C31.3764 56.905 33.0968 56.7138 34.7534 56.459C33.7339 54.9297 33.3516 53.0182 33.7339 51.2342Z" fill="#016BC3"/>
<path d="M15.2564 39.7647C19.3384 39.7647 22.6475 36.4556 22.6475 32.3736C22.6475 28.2916 19.3384 24.9824 15.2564 24.9824C11.1744 24.9824 7.86523 28.2916 7.86523 32.3736C7.86523 36.4556 11.1744 39.7647 15.2564 39.7647Z" fill="#016BC3"/>
<path d="M69.2244 44.5434C67.6315 40.7841 61.897 41.485 59.6032 41.9947C57.7554 42.4408 56.7359 43.3328 55.4616 44.6709C54.697 45.3717 53.9324 46.2001 53.0403 47.1558C52.1483 48.1753 50.4917 49.9593 49.7908 50.2142C48.1978 50.724 43.674 50.1505 41.1253 49.5133C39.3412 49.131 37.6846 50.2779 37.3023 52.062C36.9837 53.7186 38.0032 55.3753 39.6598 55.8213C42.3359 56.3947 45.012 56.777 47.6881 56.8408C49.0899 56.9045 50.4279 56.7133 51.766 56.331C53.104 55.7576 54.3784 54.9293 55.3978 53.9098C55.6527 58.8797 56.0987 65.9523 56.0987 66.3346C56.0987 66.8443 56.481 67.354 57.0545 67.354C57.1182 67.354 57.1819 67.354 57.1819 67.354H69.3518C69.9253 67.354 70.435 66.908 70.435 66.3346C70.435 66.2708 70.435 66.2709 70.435 66.2071C70.6262 58.816 70.881 48.4939 69.2244 44.5434Z" fill="#016BC3"/>
<path d="M62.1519 39.7647C66.2339 39.7647 69.543 36.4556 69.543 32.3736C69.543 28.2916 66.2339 24.9824 62.1519 24.9824C58.0699 24.9824 54.7607 28.2916 54.7607 32.3736C54.7607 36.4556 58.0699 39.7647 62.1519 39.7647Z" fill="#016BC3"/>
<path d="M38.7038 18.1011C39.6595 18.1011 40.4241 17.3365 40.4241 16.3808V12.4303C40.4241 11.4746 39.6595 10.71 38.7038 10.71C37.748 10.71 36.9834 11.4746 36.9834 12.4303V16.3808C36.9834 17.2728 37.748 18.0374 38.7038 18.1011Z" fill="#016BC3"/>
<path d="M30.2937 18.9932C30.6123 19.5029 31.1857 19.8852 31.8229 19.8852C32.1415 19.8852 32.4601 19.8215 32.7149 19.6303C33.5433 19.1843 33.8618 18.1011 33.4158 17.2091L31.4406 13.7684C30.9309 12.9401 29.8477 12.6215 29.0194 13.1312C28.191 13.641 27.8725 14.6604 28.3822 15.5525L30.2937 18.9932Z" fill="#016BC3"/>
<path d="M44.6933 19.6938C44.9482 19.8213 45.2668 19.9487 45.5853 19.9487C46.2225 19.9487 46.796 19.6301 47.1145 19.0567L49.0898 15.6159C49.5358 14.7876 49.2809 13.7044 48.3889 13.1947C47.5606 12.7487 46.4774 13.0036 45.9676 13.8319L44.1199 17.2089C43.6101 18.1009 43.865 19.1841 44.6933 19.6938Z" fill="#016BC3"/>
<path d="M38.7034 43.0778C44.6291 43.0778 49.4079 38.299 49.4079 32.3734C49.4079 26.4477 44.6291 21.6689 38.7034 21.6689C32.7778 21.6689 27.999 26.4477 27.999 32.3734C27.999 38.2353 32.7778 43.0141 38.7034 43.0778ZM34.307 31.2265C34.8804 30.7167 35.7088 30.7167 36.2822 31.2902L37.684 32.8194L41.3158 28.9327C41.8256 28.3592 42.7176 28.3592 43.2911 28.8689C43.8008 29.3787 43.8645 30.2707 43.3548 30.7805L38.7034 35.7504C38.4486 36.0052 38.0663 36.1964 37.684 36.1964C37.3017 36.1964 36.9194 36.0052 36.6645 35.7504L34.2433 33.138C33.7335 32.6282 33.7335 31.7999 34.2433 31.2902C34.2433 31.2902 34.2433 31.2265 34.307 31.2265Z" fill="#016BC3"/>
</svg>
