<svg width="31" height="28" viewBox="0 0 31 28" fill="none" xmlns="http://www.w3.org/2000/svg">
<g clip-path="url(#clip0_347_7158)">
<path d="M28 9.87653H24.9359V2.96987C24.9339 2.18346 24.6209 1.42977 24.0652 0.873344C23.5094 0.316919 22.7561 0.00295582 21.9697 0H2.96613C2.18037 0.00295032 1.42764 0.3164 0.87202 0.87202C0.3164 1.42764 0.00295032 2.18037 0 2.96613V25.0339C0.00295032 25.8196 0.3164 26.5724 0.87202 27.128C1.42764 27.6836 2.18037 27.997 2.96613 28H26.7288C27.2856 28.0011 27.8371 27.8923 28.3517 27.6797C28.8663 27.4672 29.3338 27.1551 29.7275 26.7614C30.1212 26.3677 30.4333 25.9001 30.6458 25.3855C30.8584 24.8709 30.9672 24.3194 30.9661 23.7627V12.8427C30.9632 12.0569 30.6497 11.3042 30.0941 10.7486C29.5385 10.1929 28.7858 9.87948 28 9.87653ZM2.96613 25.5883C2.89738 25.5891 2.82914 25.5762 2.76544 25.5503C2.70175 25.5244 2.64388 25.486 2.59526 25.4374C2.54663 25.3888 2.50824 25.3309 2.48233 25.2672C2.45642 25.2035 2.44352 25.1353 2.4444 25.0665V2.96613C2.44352 2.89738 2.45642 2.82914 2.48233 2.76544C2.50824 2.70175 2.54663 2.64388 2.59526 2.59526C2.64388 2.54663 2.70175 2.50824 2.76544 2.48233C2.82914 2.45642 2.89738 2.44352 2.96613 2.4444H21.9697C22.0385 2.44352 22.1067 2.45642 22.1704 2.48233C22.2341 2.50824 22.292 2.54663 22.3406 2.59526C22.3892 2.64388 22.4276 2.70175 22.4535 2.76544C22.4794 2.82914 22.4923 2.89738 22.4915 2.96613V23.7953C22.4855 24.4148 22.6191 25.0276 22.8825 25.5883H2.96613ZM28.5217 23.7953C28.5217 24.2708 28.3328 24.7269 27.9966 25.0631C27.6604 25.3994 27.2043 25.5883 26.7288 25.5883C26.2533 25.5883 25.7972 25.3994 25.461 25.0631C25.1248 24.7269 24.9359 24.2708 24.9359 23.7953V12.32H28C28.0688 12.3191 28.137 12.332 28.2007 12.3579C28.2644 12.3838 28.3223 12.4222 28.3709 12.4709C28.4195 12.5195 28.4579 12.5773 28.4838 12.641C28.5097 12.7047 28.5226 12.773 28.5217 12.8417V23.7953Z" fill="#9FD3FF"/>
<path d="M6.22562 12.7147H9.78255C9.94101 12.7151 10.098 12.6841 10.2445 12.6237C10.3909 12.5632 10.524 12.4744 10.6361 12.3623C10.7481 12.2503 10.8369 12.1172 10.8974 11.9708C10.9579 11.8243 10.9888 11.6673 10.9884 11.5088V6.45392C10.9888 6.29546 10.9579 6.13848 10.8974 5.99202C10.8369 5.84555 10.7481 5.71246 10.6361 5.60042C10.524 5.48837 10.3909 5.39956 10.2445 5.33909C10.098 5.27862 9.94101 5.24768 9.78255 5.24805H6.22562C6.0674 5.24805 5.91072 5.27926 5.76458 5.3399C5.61843 5.40053 5.48569 5.4894 5.37393 5.60141C5.26218 5.71342 5.17362 5.84638 5.11333 5.99266C5.05303 6.13895 5.02219 6.29569 5.02255 6.45392V11.4734C5.0157 11.635 5.04184 11.7963 5.09938 11.9475C5.15692 12.0987 5.24465 12.2365 5.35722 12.3527C5.4698 12.4688 5.60485 12.5608 5.75416 12.6231C5.90346 12.6853 6.06387 12.7165 6.22562 12.7147Z" fill="#9FD3FF"/>
<path d="M18.7097 15.3193H6.2254C6.06694 15.319 5.90997 15.3499 5.7635 15.4104C5.61703 15.4708 5.48395 15.5597 5.3719 15.6717C5.25985 15.7838 5.17104 15.9168 5.11057 16.0633C5.0501 16.2098 5.01917 16.3667 5.01953 16.5252C5.02435 16.8435 5.15294 17.1474 5.37805 17.3726C5.60316 17.5977 5.90709 17.7263 6.2254 17.7311H18.7097C19.0295 17.7311 19.3362 17.604 19.5623 17.3779C19.7885 17.1517 19.9155 16.845 19.9155 16.5252C19.9155 16.2054 19.7885 15.8987 19.5623 15.6725C19.3362 15.4464 19.0295 15.3193 18.7097 15.3193Z" fill="#9FD3FF"/>
<path d="M18.7106 10.2676H14.3426C14.1841 10.2672 14.0272 10.2982 13.8807 10.3586C13.7342 10.4191 13.6011 10.5079 13.4891 10.6199C13.377 10.732 13.2882 10.8651 13.2278 11.0115C13.1673 11.158 13.1364 11.315 13.1367 11.4734C13.1415 11.7918 13.2701 12.0957 13.4952 12.3208C13.7203 12.5459 14.0243 12.6745 14.3426 12.6793H18.7106C19.0304 12.6793 19.3371 12.5523 19.5633 12.3261C19.7894 12.1 19.9165 11.7933 19.9165 11.4734C19.9165 11.1536 19.7894 10.8469 19.5633 10.6208C19.3371 10.3946 19.0304 10.2676 18.7106 10.2676Z" fill="#9FD3FF"/>
<path d="M18.7106 5.24805H14.3426C14.1841 5.24768 14.0272 5.27862 13.8807 5.33909C13.7342 5.39956 13.6011 5.48837 13.4891 5.60042C13.377 5.71246 13.2882 5.84555 13.2278 5.99202C13.1673 6.13848 13.1364 6.29546 13.1367 6.45392C13.1415 6.77223 13.2701 7.07616 13.4952 7.30126C13.7203 7.52637 14.0243 7.65497 14.3426 7.65978H18.7106C19.0304 7.65978 19.3371 7.53274 19.5633 7.30659C19.7894 7.08045 19.9165 6.77373 19.9165 6.45392C19.9165 6.1341 19.7894 5.82738 19.5633 5.60124C19.3371 5.3751 19.0304 5.24805 18.7106 5.24805Z" fill="#9FD3FF"/>
<path d="M18.7097 20.3398H6.2254C5.90558 20.3398 5.59887 20.4669 5.37272 20.693C5.14658 20.9192 5.01953 21.2259 5.01953 21.5457C5.01953 21.8655 5.14658 22.1722 5.37272 22.3984C5.59887 22.6245 5.90558 22.7516 6.2254 22.7516H18.7097C19.0295 22.7516 19.3362 22.6245 19.5623 22.3984C19.7885 22.1722 19.9155 21.8655 19.9155 21.5457C19.9155 21.2259 19.7885 20.9192 19.5623 20.693C19.3362 20.4669 19.0295 20.3398 18.7097 20.3398Z" fill="#9FD3FF"/>
</g>
<defs>
<clipPath id="clip0_347_7158">
<rect width="30.9661" height="28" fill="white"/>
</clipPath>
</defs>
</svg>
