<svg width="10" height="7" viewBox="0 0 10 7" fill="none" xmlns="http://www.w3.org/2000/svg">
<g id="Dropdown Arrow Closed" clip-path="url(#clip0_1211_1645)">
<g id="Dropdown Arrow Closed_2">
<g id="Clip path group">
<mask id="mask0_1211_1645" style="mask-type:luminance" maskUnits="userSpaceOnUse" x="0" y="0" width="10" height="7">
<g id="clip-path">
<path id="Rect&#195;&#161;ngulo 41" d="M10 7V0L0 0V7L10 7Z" fill="white"/>
</g>
</mask>
<g mask="url(#mask0_1211_1645)">
<g id="Grupo 57">
<path id="Trazado 68" d="M5.66705 6.67329L9.97705 1.02745C9.98611 1.0156 9.9927 1.00205 9.99644 0.987609C10.0002 0.973166 10.001 0.958121 9.99881 0.943361C9.99663 0.928602 9.99152 0.914428 9.98378 0.901677C9.97603 0.888926 9.96581 0.877855 9.95372 0.86912L8.80455 0.0224532C8.78007 0.00457503 8.7496 -0.00307409 8.71958 0.00112558C8.68956 0.00532524 8.66235 0.0210439 8.64372 0.0449532L5.00039 4.81495L1.35622 0.0449532C1.33759 0.0210439 1.31038 0.00532524 1.28036 0.00112558C1.25034 -0.00307409 1.21986 0.00457503 1.19538 0.0224532L0.0462189 0.86912C0.0319309 0.879548 0.0203247 0.893221 0.0123558 0.909013C0.00438786 0.924805 0.000284195 0.942265 0.000385284 0.959953C0.00043869 0.984422 0.00864983 1.00817 0.0237179 1.02745L4.33372 6.67329C4.38099 6.73655 4.43712 6.79268 4.50039 6.83995C4.67818 6.96979 4.89967 7.02503 5.11762 6.9939C5.33556 6.96276 5.53272 6.84771 5.66705 6.67329Z" fill="white"/>
</g>
</g>
</g>
</g>
</g>
<defs>
<clipPath id="clip0_1211_1645">
<rect width="10" height="7" fill="white"/>
</clipPath>
</defs>
</svg>
