<svg width="20" height="20" viewBox="0 0 20 20" fill="none" xmlns="http://www.w3.org/2000/svg">
<g id="icon-time" clip-path="url(#clip0_541_24617)">
<g id="Group">
<path id="Vector" d="M10 0C4.47713 0 0 4.47713 0 10C0 15.5229 4.47713 20 10 20C15.5229 20 20 15.5229 20 10C19.9949 4.47927 15.5207 0.00513333 10 0ZM10 17.8107C5.68627 17.8107 2.18933 14.3137 2.18933 10C2.18933 5.68627 5.68627 2.18933 10 2.18933C14.3137 2.18933 17.8107 5.68627 17.8107 10C17.8048 14.3113 14.3113 17.8048 10 17.8107Z" fill="#016BC3"/>
<path id="Vector_2" d="M10.8672 4.46289H9.14119L8.86719 10.7369L13.9832 12.8209L14.6779 11.3682L11.0779 9.34689L10.8672 4.46289Z" fill="#016BC3"/>
</g>
</g>
<defs>
<clipPath id="clip0_541_24617">
<rect width="20" height="20" fill="white"/>
</clipPath>
</defs>
</svg>
