<svg width="31" height="25" viewBox="0 0 31 25" fill="none" xmlns="http://www.w3.org/2000/svg">
<g clip-path="url(#clip0_347_4503)">
<path d="M12.7078 9.9715C14.3616 10.6322 16.206 10.6322 17.8598 9.9715L30.2198 4.93076C29.3365 2.01502 26.6558 0.0155437 23.6092 0H6.94464C3.88529 0.0127729 1.19486 2.02655 0.320312 4.95825L12.7078 9.9715Z" fill="#003A6A"/>
<path d="M18.9006 12.5008C17.7459 12.9549 16.5168 13.1902 15.276 13.1945C14.0395 13.1916 12.8146 12.9563 11.6651 12.5008L4.56425e-07 7.83129V18.0528C-0.00137509 21.888 3.10657 24.9982 6.94181 24.9996H23.6089C27.4441 24.9996 30.5532 21.8905 30.5532 18.0553V7.79004L18.9006 12.5008Z" fill="#003A6A"/>
</g>
<defs>
<clipPath id="clip0_347_4503">
<rect width="30.5532" height="25" fill="white"/>
</clipPath>
</defs>
</svg>
