<svg width="24" height="30" viewBox="0 0 24 30" fill="none" xmlns="http://www.w3.org/2000/svg">
<g clip-path="url(#clip0_347_7138)">
<path d="M18.6054 11.6719C18.597 8.00906 15.6209 5.04639 11.9581 5.0547C8.29519 5.06302 5.33252 8.03912 5.34084 11.702C5.34916 15.3531 8.30691 18.3109 11.9581 18.3192C15.6288 18.3197 18.6048 15.3446 18.6054 11.6739V11.6719Z" fill="white"/>
<path d="M22.436 6.3855C19.4717 0.612593 12.3889 -1.6643 6.616 1.29987C0.905827 4.23187 -1.39482 11.2036 1.44889 16.9582C2.77875 19.5859 8.31766 26.4236 10.7559 29.43C11.2813 30.0857 12.2388 30.1912 12.8944 29.6657C12.9814 29.596 13.0604 29.5169 13.13 29.43C15.5672 26.4236 21.047 19.5849 22.4681 16.9582C24.2149 13.6476 24.2029 9.6855 22.436 6.3855ZM5.34226 11.6719C5.35058 8.009 8.32668 5.04633 11.9896 5.05464C15.6524 5.06296 18.6151 8.03906 18.6068 11.7019C18.5985 15.3648 15.6224 18.3275 11.9595 18.3192C11.9585 18.3192 11.9575 18.3192 11.9565 18.3192C8.29662 18.3048 5.33836 15.3317 5.34226 11.6719Z" fill="#DD231B"/>
</g>
<defs>
<clipPath id="clip0_347_7138">
<rect width="24" height="30" fill="white"/>
</clipPath>
</defs>
</svg>
