<svg width="130" height="120" viewBox="0 0 130 120" fill="none" xmlns="http://www.w3.org/2000/svg">
<g clip-path="url(#clip0_541_7642)">
<path fill-rule="evenodd" clip-rule="evenodd" d="M18.4336 119.509L10.0395 107.753C9.02246 106.357 8.28911 105.284 7.83945 104.533C7.38978 103.782 7.1214 103.338 7.03429 103.201H6.95307C6.95307 103.339 6.97426 103.802 7.0131 104.596C7.05195 105.391 7.07667 106.302 7.07667 107.34V119.509H0.00683594V92.0811H7.94539L15.4355 102.919C16.396 104.31 17.1505 105.477 17.6991 106.418C18.2464 107.361 18.5501 107.873 18.6031 107.955H18.6879C18.6879 107.902 18.6879 107.722 18.6455 107.425C18.6031 107.128 18.596 106.754 18.5819 106.32C18.5678 105.885 18.5572 105.387 18.5431 104.84C18.529 104.293 18.5219 103.749 18.5219 103.201V92.0811H25.5847V119.509H18.4336Z" fill="#1C355E"/>
<path fill-rule="evenodd" clip-rule="evenodd" d="M55.8737 107.831C55.8737 111.873 54.8661 114.913 52.8508 116.949C50.8356 118.986 47.8798 120.004 43.9835 120.004C39.8118 120.004 36.6783 119.081 34.583 117.235C32.4877 115.389 31.4389 112.529 31.4365 108.654V92.0811H39.2974V108.121C39.2846 108.96 39.3675 109.797 39.5446 110.617C39.6721 111.253 39.9466 111.851 40.3462 112.362C40.738 112.827 41.2516 113.174 41.8294 113.365C42.5797 113.599 43.364 113.705 44.1495 113.679C45.8516 113.679 47.0288 113.221 47.6809 112.305C48.333 111.389 48.6626 110.044 48.6697 108.269V92.0811H55.8737V107.831Z" fill="#1C355E"/>
<path fill-rule="evenodd" clip-rule="evenodd" d="M74.3918 98.5717V119.509H66.5344V98.5717H59.168V92.0811H81.7582V98.5717H74.3918Z" fill="#1C355E"/>
<path fill-rule="evenodd" clip-rule="evenodd" d="M85.1309 119.509V92.0811H102.329V98.5717H92.8681V102.668H101.22V108.569H92.8681V113.16H102.618V119.509H85.1309Z" fill="#1C355E"/>
<path fill-rule="evenodd" clip-rule="evenodd" d="M129.962 117.013C129.51 117.378 129.03 117.707 128.525 117.994C127.861 118.38 127.165 118.709 126.445 118.976C125.603 119.294 124.736 119.541 123.853 119.714C122.884 119.908 121.899 120.005 120.911 120.004C118.692 120.056 116.485 119.657 114.424 118.831C112.711 118.129 111.168 117.069 109.9 115.72C108.707 114.418 107.8 112.881 107.237 111.207C106.647 109.487 106.348 107.679 106.355 105.86C106.348 104.039 106.653 102.229 107.259 100.51C107.846 98.8388 108.778 97.3096 109.995 96.0221C111.294 94.6706 112.865 93.6102 114.604 92.9109C116.664 92.0924 118.868 91.695 121.084 91.742C122.714 91.7199 124.339 91.9123 125.918 92.3141C127.269 92.6687 128.554 93.2361 129.725 93.995L126.349 99.6453C125.613 99.2105 124.833 98.8554 124.022 98.5858C123.03 98.284 121.997 98.1445 120.96 98.1727C120.032 98.1535 119.111 98.343 118.266 98.7271C117.499 99.0823 116.822 99.6076 116.288 100.263C115.734 100.961 115.322 101.762 115.077 102.619C114.793 103.597 114.654 104.612 114.664 105.631C114.654 106.703 114.786 107.772 115.056 108.809C115.286 109.712 115.69 110.562 116.246 111.309C116.778 112 117.46 112.561 118.241 112.948C119.116 113.36 120.075 113.564 121.042 113.541C122.251 113.592 123.457 113.375 124.573 112.906C125.36 112.536 126.117 112.105 126.837 111.617L129.962 117.013Z" fill="#1C355E"/>
<path fill-rule="evenodd" clip-rule="evenodd" d="M98.9736 82.8779C98.9728 83.5907 98.8535 84.2984 98.6205 84.972C98.3891 85.6393 98.0292 86.2547 97.5611 86.7836C97.3235 87.0467 97.0583 87.2835 96.7701 87.4899C96.4688 87.7046 96.147 87.8892 95.8095 88.0408C95.4456 88.2026 95.064 88.3212 94.6724 88.3939C94.2462 88.4734 93.8135 88.5125 93.3799 88.5105C92.9453 88.5134 92.5114 88.4756 92.0839 88.3975C91.6886 88.3215 91.3026 88.2031 90.9327 88.0443C90.5889 87.8961 90.2601 87.7152 89.951 87.504C89.655 87.2993 89.3826 87.0624 89.1387 86.7977C88.8982 86.5417 88.6852 86.2612 88.5031 85.9608C88.3174 85.6617 88.1624 85.3446 88.0405 85.0144C87.9179 84.6818 87.8246 84.3391 87.7615 83.9903C87.7006 83.6404 87.6698 83.286 87.6697 82.9309C87.6645 82.221 87.784 81.5158 88.0228 80.8473C88.2586 80.1817 88.6261 79.5703 89.1034 79.0499C89.3452 78.787 89.6139 78.5503 89.9051 78.3436C90.2095 78.1319 90.5335 77.9498 90.8727 77.7998C91.2388 77.6374 91.6229 77.5189 92.0168 77.4466C92.8715 77.2912 93.7471 77.2912 94.6018 77.4466C94.9968 77.5193 95.382 77.6378 95.7495 77.7998C96.1077 77.9513 96.4486 78.1407 96.7665 78.3648C97.0581 78.571 97.3268 78.8078 97.5682 79.0711C97.8025 79.325 98.0107 79.6019 98.1897 79.8974C98.3682 80.1953 98.5173 80.5099 98.6346 80.8368C98.7526 81.1661 98.8412 81.5053 98.8995 81.8503C98.9603 82.2001 98.991 82.5546 98.9913 82.9097L98.9736 82.8779ZM95.7318 82.952C95.7334 82.5538 95.6884 82.1568 95.5976 81.769C95.5199 81.4279 95.3785 81.1044 95.1809 80.8156C95.0894 80.6856 94.9827 80.5671 94.8631 80.4624C94.7426 80.3579 94.6112 80.2667 94.4711 80.1905C94.3205 80.113 94.1602 80.056 93.9944 80.021C93.7982 79.9799 93.5981 79.9597 93.3976 79.961C93.0155 79.9502 92.6361 80.0275 92.2887 80.187C92.1413 80.2606 92.0027 80.3506 91.8756 80.4554C91.7441 80.5584 91.6255 80.677 91.5224 80.8085C91.3151 81.0823 91.1639 81.3943 91.0775 81.7267C91.0263 81.9108 90.9885 82.0985 90.9645 82.2881C90.9397 82.4873 90.9279 82.6878 90.9292 82.8885C90.9283 83.0938 90.9401 83.299 90.9645 83.5029C90.9885 83.6996 91.0262 83.8943 91.0775 84.0856C91.1231 84.2649 91.1846 84.4398 91.2611 84.6083C91.3312 84.7634 91.4164 84.9112 91.5154 85.0497C91.7067 85.3152 91.9569 85.5328 92.2464 85.6853C92.397 85.7672 92.5588 85.8267 92.7266 85.8619C92.9226 85.905 93.1228 85.9251 93.3234 85.9219C93.7016 85.936 94.0775 85.8572 94.4182 85.6924C94.5634 85.6175 94.6997 85.5263 94.8243 85.4205C94.9459 85.3168 95.0539 85.1982 95.1456 85.0674C95.2447 84.9327 95.3299 84.7884 95.3999 84.6365C95.4724 84.4733 95.5315 84.3044 95.5765 84.1315C95.6236 83.9444 95.659 83.7545 95.6824 83.563C95.7069 83.3626 95.7187 83.161 95.7177 82.9591L95.7318 82.952ZM83.3261 81.1511C83.3276 81.4416 83.2992 81.7315 83.2413 82.0162C83.1883 82.2818 83.1041 82.5402 82.9906 82.7861C82.88 83.0164 82.745 83.2343 82.588 83.4358C82.4274 83.6335 82.245 83.8124 82.0442 83.9691C81.8375 84.128 81.615 84.2653 81.3803 84.3787C81.1298 84.4996 80.8685 84.5966 80.5999 84.6683C80.3131 84.7438 80.0217 84.8004 79.7276 84.8378C79.4111 84.875 79.0928 84.8938 78.7741 84.8943H78.2268V88.3445H75.1086V77.5314H79.0178C79.5766 77.5281 80.1334 77.5981 80.674 77.7397C80.9274 77.8089 81.1743 77.8999 81.4121 78.0116C81.6378 78.1175 81.852 78.2465 82.0512 78.3966C82.2492 78.5463 82.4282 78.7194 82.5845 78.9121C82.7445 79.1052 82.8798 79.3176 82.9871 79.5443C83.1032 79.7845 83.1886 80.0384 83.2413 80.3C83.2991 80.58 83.3275 80.8652 83.3261 81.1511ZM80.2079 81.1828C80.212 80.9983 80.1845 80.8143 80.1266 80.639C80.0836 80.5113 80.0081 80.3969 79.9077 80.307C79.793 80.2098 79.6578 80.1398 79.5122 80.1022C79.2931 80.0458 79.0674 80.0196 78.8412 80.0245H78.2268V82.4012H78.7812C79.0192 82.4062 79.2568 82.3788 79.4875 82.3199C79.6408 82.2823 79.7834 82.2098 79.9042 82.1081C80.0098 82.012 80.0888 81.8904 80.1337 81.7549C80.195 81.5682 80.2237 81.3722 80.2185 81.1758L80.2079 81.1828ZM69.5113 83.7925C69.5217 84.4717 69.4264 85.1484 69.2288 85.7983C69.0544 86.3596 68.755 86.874 68.353 87.3027C67.5761 88.1173 66.4355 88.5246 64.9311 88.5246C64.2328 88.5375 63.5364 88.4458 62.8652 88.2527C62.2978 88.0896 61.7765 87.7957 61.3432 87.3945C60.9286 86.9982 60.616 86.5076 60.4321 85.9643C60.224 85.3444 60.1237 84.6935 60.1355 84.0397V77.5314H63.2537V83.8526C63.2056 84.4067 63.3409 84.9613 63.6386 85.4311C63.7659 85.5838 63.9335 85.6976 64.1224 85.7595C64.3982 85.8489 64.6872 85.8907 64.977 85.8831C65.2071 85.908 65.4397 85.8785 65.6563 85.7969C65.8728 85.7153 66.0672 85.5839 66.2236 85.4134C66.3548 85.233 66.4507 85.0293 66.5061 84.8131C66.5783 84.5341 66.6128 84.2467 66.6085 83.9585V77.5314H69.5113V83.7925ZM52.2711 88.1891L50.4665 85.2898C50.3994 85.1804 50.3253 85.0674 50.2511 84.9614C50.177 84.8555 50.1205 84.7707 50.0746 84.7107L49.9298 84.5341C49.8909 84.4882 49.8521 84.4529 49.8203 84.4211L49.7426 84.3646H49.7038V88.3586H46.5855V77.5314H50.5054C51.0884 77.5239 51.67 77.5916 52.2358 77.7327C52.7158 77.8494 53.1681 78.0594 53.5671 78.3507C53.9386 78.6251 54.2339 78.9897 54.4252 79.4101C54.6163 79.8561 54.7114 80.3374 54.7042 80.8226C54.7113 81.2385 54.6394 81.6519 54.4923 82.041C54.4239 82.2095 54.3425 82.3725 54.2487 82.5283C54.1557 82.6768 54.0505 82.8174 53.9344 82.9485C53.8273 83.0764 53.7091 83.1946 53.5812 83.3017C53.449 83.4057 53.3071 83.4967 53.1575 83.5736C53.0374 83.6336 52.9138 83.6901 52.8043 83.7431L52.9774 83.9267C53.1032 84.0709 53.2211 84.2217 53.3305 84.3787C53.4541 84.5518 53.5812 84.7531 53.7154 84.9755L55.8342 88.3374H52.3841L52.2923 88.182L52.2711 88.1891ZM51.639 80.9921C51.6423 80.8419 51.6184 80.6924 51.5683 80.5507C51.5263 80.4429 51.4584 80.3471 51.3706 80.2717C51.2674 80.1866 51.1469 80.1251 51.0174 80.0916C50.8068 80.0427 50.5909 80.0201 50.3747 80.0245H49.7179V81.9597H50.4665C50.6643 81.9633 50.8615 81.9395 51.0527 81.8891C51.182 81.857 51.3026 81.7967 51.4059 81.7125C51.4906 81.6324 51.5569 81.5348 51.6001 81.4265C51.648 81.2868 51.6707 81.1398 51.6672 80.9921H51.639ZM41.0801 87.5464L40.5645 87.8077C40.4434 87.873 40.3184 87.9308 40.1902 87.9807C40.0595 88.0373 39.9077 88.0902 39.7453 88.1432C39.5828 88.1962 39.3921 88.2456 39.2085 88.2915C39.0248 88.3374 38.813 88.3763 38.5905 88.4151C38.368 88.4539 38.1243 88.4787 37.8842 88.4999C37.6441 88.5211 37.3474 88.5246 37.0614 88.5246C36.6174 88.5275 36.1742 88.4897 35.7371 88.4116C35.336 88.3361 34.9441 88.2177 34.5682 88.0584C34.2202 87.9097 33.8868 87.7288 33.5724 87.5181C33.2731 87.3136 32.9971 87.0767 32.7496 86.8119C32.5084 86.5534 32.2931 86.2719 32.1069 85.9714C31.9211 85.6686 31.7661 85.348 31.6443 85.0144C31.5201 84.6799 31.4267 84.3347 31.3653 83.9832C31.3033 83.6335 31.2725 83.279 31.2735 82.9238C31.2735 82.5684 31.3066 82.2137 31.3723 81.8644C31.4413 81.5127 31.5442 81.1686 31.6796 80.8368C31.9454 80.1733 32.3458 79.5721 32.8555 79.0711C33.1155 78.8057 33.4032 78.5689 33.7136 78.3648C34.0385 78.1559 34.3812 77.9763 34.7378 77.828C35.1229 77.6676 35.5243 77.5492 35.9349 77.4749C36.3766 77.3956 36.8245 77.3566 37.2733 77.3583C38 77.3394 38.7254 77.4323 39.4239 77.6338C39.6893 77.719 39.9489 77.8217 40.2008 77.941C40.4267 78.0502 40.6439 78.1765 40.8506 78.3189L41.0872 78.4919L39.7029 80.8685L39.4168 80.6814C39.286 80.5971 39.1504 80.5205 39.0107 80.4518C38.8499 80.3702 38.6849 80.2971 38.5163 80.2329C38.3342 80.1623 38.1446 80.1125 37.9513 80.0846C37.7117 80.0487 37.4696 80.0322 37.2274 80.0351C37.0063 80.0346 36.7855 80.0511 36.567 80.0846C36.3798 80.1178 36.1964 80.1699 36.0196 80.2399C35.86 80.3043 35.7074 80.3847 35.5641 80.4801C35.4353 80.5744 35.317 80.6821 35.211 80.8014C35.1011 80.9268 35.0041 81.0629 34.9214 81.2075C34.8365 81.3605 34.7667 81.5214 34.713 81.6878C34.6525 81.8694 34.6088 82.0562 34.5824 82.2458C34.5523 82.4528 34.5369 82.6617 34.5365 82.8708C34.5362 83.0845 34.5492 83.298 34.5753 83.51C34.6026 83.7087 34.6415 83.9056 34.6918 84.0998C34.7422 84.2778 34.8071 84.4515 34.8861 84.6189C34.9583 84.7751 35.0471 84.9231 35.1509 85.0603C35.2544 85.1914 35.3729 85.3099 35.5041 85.4134C35.6353 85.5178 35.7773 85.6078 35.9278 85.6818C36.09 85.7583 36.2607 85.8152 36.4363 85.8513C36.6449 85.8896 36.8565 85.9085 37.0685 85.9078C37.3894 85.9213 37.7103 85.882 38.0184 85.7913L38.3044 85.6853V84.4776H36.5388V81.9385H41.3061V87.4652L41.0801 87.5464Z" fill="#AA182C"/>
<path fill-rule="evenodd" clip-rule="evenodd" d="M65.1572 66.729C59.1297 66.729 53.2375 64.9416 48.2258 61.5929C43.214 58.2442 39.3079 53.4845 37.0012 47.9158C34.6946 42.347 34.0911 36.2193 35.267 30.3076C36.4429 24.3959 39.3454 18.9656 43.6076 14.7035C47.8697 10.4413 53.3 7.53881 59.2117 6.36289C65.1234 5.18697 71.2511 5.79049 76.8199 8.09714C82.3886 10.4038 87.1483 14.31 90.497 19.3217C93.8457 24.3334 95.6331 30.2256 95.6331 36.2532C95.6331 40.2553 94.8448 44.2183 93.3133 47.9158C91.7817 51.6133 89.5369 54.9729 86.7069 57.8028C83.877 60.6328 80.5174 62.8776 76.8199 64.4092C73.1224 65.9407 69.1594 66.729 65.1572 66.729ZM65.1572 0.579102C58.103 0.579102 51.2071 2.67094 45.3417 6.59008C39.4763 10.5092 34.9048 16.0796 32.2052 22.5969C29.5057 29.1142 28.7994 36.2857 30.1756 43.2044C31.5518 50.1231 34.9488 56.4784 39.9369 61.4665C44.925 66.4546 51.2802 69.8515 58.199 71.2278C65.1177 72.604 72.2891 71.8977 78.8064 69.1981C85.3237 66.4986 90.8941 61.927 94.8133 56.0616C98.7324 50.1962 100.824 43.3004 100.824 36.2461C100.824 26.7866 97.0665 17.7146 90.3776 11.0257C83.6888 4.33687 74.6167 0.579102 65.1572 0.579102Z" fill="#AA182C"/>
<path fill-rule="evenodd" clip-rule="evenodd" d="M79.5658 56.6717C78.0614 58.0137 74.0533 63.2295 66.6197 60.4185C62.2514 58.7694 57.7348 49.9939 67.04 43.3761C72.4924 39.4916 76.0273 36.3133 77.002 28.1911C78.1603 18.5646 70.2253 9.82791 65.1719 8.34473C65.1719 8.34473 69.8439 15.4075 64.176 20.9447C59.3239 25.6697 51.0039 29.1269 47.7339 41.4056C45.2372 50.7779 51.4771 62.5939 63.0742 63.9711C71.8497 65.0411 78.0685 59.345 79.5658 56.6717Z" fill="#AA182C"/>
<path fill-rule="evenodd" clip-rule="evenodd" d="M78.4747 33.46C77.9431 35.1601 77.2489 36.8051 76.4018 38.3721C75.752 39.5481 74.6644 40.7558 73.5944 41.8682C72.5244 42.9806 70.5291 44.2554 70.0171 44.5838C64.4198 48.1399 62.3363 52.1375 64.5964 57.3992C65.4298 59.3309 67.2167 60.5139 69.2225 61.146C70.8929 61.6722 75.3283 61.5239 77.9415 58.5964C78.7948 57.6789 79.5786 56.6992 80.2863 55.6653C82.4037 52.2585 83.3705 48.2616 83.0444 44.2637C82.7182 40.2658 81.1163 36.4785 78.4747 33.46Z" fill="#AA182C"/>
<path fill-rule="evenodd" clip-rule="evenodd" d="M103.957 36.1861C103.949 43.7428 101.755 51.1359 97.639 57.473C93.5227 63.8102 87.6601 68.8204 80.7589 71.899H100.92C110.363 62.4134 115.661 49.571 115.653 36.1861C115.653 22.2724 109.886 9.6654 100.365 0H79.4629C94.4889 6.25055 103.957 20.2913 103.957 36.1861Z" fill="#1C355E"/>
<path fill-rule="evenodd" clip-rule="evenodd" d="M26.0124 36.1861C26.0194 43.7428 28.2136 51.1359 32.3299 57.473C36.4463 63.8102 42.3089 68.8204 49.21 71.899H29.0494C19.6059 62.4134 14.3079 49.571 14.3164 36.1861C14.3164 22.2724 19.8395 9.75016 29.6038 0H50.3648C35.2081 6.32471 26.0124 20.2913 26.0124 36.1861Z" fill="#1C355E"/>
</g>
<defs>
<clipPath id="clip0_541_7642">
<rect width="129.973" height="120" fill="white"/>
</clipPath>
</defs>
</svg>
