<svg width="131" height="120" viewBox="0 0 131 120" fill="none" xmlns="http://www.w3.org/2000/svg">
<g clip-path="url(#clip0_541_7654)">
<path d="M37.2456 120C35.3136 120 33.8109 119.444 32.7376 118.332C32.21 117.791 31.7958 117.15 31.5193 116.447C31.2428 115.743 31.1096 114.992 31.1276 114.236C31.1155 113.475 31.2618 112.719 31.5573 112.018C31.8527 111.316 32.2909 110.683 32.8438 110.16C33.9966 109.035 35.5583 108.473 37.529 108.476C39.1089 108.476 40.3679 108.792 41.306 109.425L39.9697 111.815C39.2277 111.337 38.363 111.086 37.4807 111.09C36.5104 111.09 35.7698 111.354 35.2588 111.882C34.9885 112.189 34.7813 112.546 34.6493 112.933C34.5172 113.319 34.4628 113.728 34.4893 114.136C34.4407 114.996 34.6761 115.848 35.159 116.561C35.6034 117.151 36.2882 117.447 37.2134 117.447C37.67 117.458 38.1242 117.378 38.5497 117.211V115.724H36.7626V113.318H41.5733V118.999C41.2062 119.189 40.8874 119.34 40.6073 119.449C40.1732 119.608 39.726 119.729 39.271 119.81C38.6037 119.94 37.9253 120.003 37.2456 120Z" fill="#AD1E22"/>
<path d="M46.3838 119.8V108.675H50.6439C52.08 108.675 53.1801 108.961 53.9444 109.535C54.7086 110.108 55.0896 110.951 55.0875 112.065C55.1185 112.784 54.8899 113.489 54.4435 114.052C54.04 114.546 53.5055 114.917 52.9011 115.121V115.157C53.4791 115.644 53.9551 116.24 54.3018 116.912L56.0245 119.81H52.6145L50.7276 116.635C50.5746 116.348 50.3864 116.082 50.1673 115.843C50.037 115.725 49.8664 115.661 49.6907 115.665H49.5877V119.81L46.3838 119.8ZM49.5877 113.518H50.5891C51.5143 113.518 51.9769 113.106 51.9769 112.281C51.9769 111.457 51.4811 111.039 50.4893 111.029H49.5877V113.518Z" fill="#AD1E22"/>
<path d="M68.6284 119.141C67.6447 119.731 66.5133 120.029 65.3665 120C64.2077 120.03 63.0629 119.741 62.0563 119.166C61.1828 118.672 60.4681 117.939 59.9955 117.054C59.5522 116.188 59.3257 115.228 59.3354 114.256C59.3234 113.277 59.5442 112.309 59.9794 111.432C60.4355 110.543 61.1404 109.805 62.008 109.31C63.0072 108.734 64.146 108.445 65.2989 108.476C67.1794 108.476 68.638 109.026 69.6749 110.128C70.7044 111.211 71.2635 112.658 71.2301 114.153C71.2416 115.137 71.0302 116.111 70.6119 117.002C70.1704 117.891 69.4817 118.634 68.6284 119.141ZM65.2957 117.453C66.1973 117.453 66.852 117.155 67.2599 116.558C67.6922 115.867 67.9044 115.061 67.8684 114.246C67.9052 113.425 67.6991 112.61 67.276 111.905C66.8788 111.302 66.2413 111.001 65.3633 111.004C64.4853 111.006 63.8166 111.295 63.3572 111.873C62.8996 112.539 62.6734 113.336 62.7132 114.143C62.6826 114.981 62.9072 115.809 63.3572 116.516C63.5716 116.827 63.8626 117.078 64.2022 117.244C64.5418 117.41 64.9184 117.485 65.2957 117.463V117.453Z" fill="#AD1E22"/>
<path d="M80.7318 120C77.3336 120 75.6356 118.457 75.6377 115.372V108.675H78.8255V115.157C78.8255 115.96 78.9704 116.538 79.2602 116.892C79.55 117.246 80.0631 117.425 80.7994 117.427C81.4648 117.427 81.9382 117.246 82.2194 116.886C82.5322 116.391 82.6779 115.808 82.6348 115.224V108.675H85.5585V115.038C85.5585 116.665 85.1496 117.899 84.3317 118.741C83.5138 119.582 82.3138 120.002 80.7318 120Z" fill="#AD1E22"/>
<path d="M90.6719 119.8V108.675H94.9899C96.3359 108.675 97.4275 108.989 98.2647 109.618C99.1019 110.247 99.5194 111.18 99.5172 112.416C99.5172 113.685 99.0879 114.646 98.2292 115.298C97.3706 115.951 96.1899 116.273 94.6872 116.264H93.8629V119.79L90.6719 119.8ZM93.8629 113.936H94.713C95.1555 113.973 95.5959 113.844 95.9495 113.576C96.0935 113.428 96.2039 113.25 96.2734 113.056C96.3428 112.862 96.3696 112.654 96.352 112.449C96.3705 112.251 96.3456 112.051 96.2788 111.863C96.2121 111.676 96.1052 111.505 95.9656 111.364C95.6216 111.118 95.2014 111.004 94.7806 111.042H93.8629V113.936Z" fill="#AD1E22"/>
<path fill-rule="evenodd" clip-rule="evenodd" d="M18.5086 104.714L10.0818 92.9097C9.06217 91.5079 8.32479 90.4346 7.8697 89.6897C7.41568 88.9394 7.1452 88.4919 7.0647 88.3534H6.98098C6.98098 88.4919 7.00352 88.9588 7.04538 89.7541C7.08724 90.5494 7.10656 91.4671 7.10656 92.5104V104.714H0V77.1768H7.97274L15.4915 88.0539C16.4575 89.4514 17.2109 90.63 17.7648 91.5702C18.3186 92.5104 18.6181 93.0321 18.6728 93.1126H18.7565C18.7565 93.0578 18.7565 92.8807 18.7147 92.5813C18.6728 92.2818 18.6664 91.9083 18.6535 91.4704C18.6406 91.0325 18.6245 90.5366 18.6116 89.9859C18.5988 89.4353 18.5891 88.8911 18.5891 88.3405V77.1768H25.6957V104.714H18.5086Z" fill="#1D3362"/>
<path fill-rule="evenodd" clip-rule="evenodd" d="M56.0986 92.9902C56.0986 97.0496 55.0864 100.101 53.0621 102.145C51.0378 104.188 48.0711 105.21 44.162 105.21C39.9717 105.21 36.8247 104.284 34.7209 102.431C32.6172 100.579 31.5621 97.7065 31.5557 93.8145V77.1768H39.4447V93.2768C39.4328 94.1196 39.516 94.961 39.6926 95.7852C39.8224 96.4233 40.0979 97.0228 40.4976 97.5369C40.8902 98.0046 41.4053 98.3536 41.9853 98.5447C42.74 98.7817 43.5291 98.8905 44.3198 98.8667C46.0371 98.8667 47.2178 98.4073 47.8618 97.4886C48.5058 96.5698 48.8364 95.2195 48.8535 93.4378V77.1768H56.0825L56.0986 92.9902Z" fill="#1D3362"/>
<path fill-rule="evenodd" clip-rule="evenodd" d="M74.6916 83.6941V104.714H66.7994V83.6941H59.4062V77.1768H82.0848V83.6941H74.6916Z" fill="#1D3362"/>
<path fill-rule="evenodd" clip-rule="evenodd" d="M85.4717 104.714V77.1768H102.737V83.6941H93.2416V87.806H101.626V93.7308H93.2416V98.3386H103.03V104.714H85.4717Z" fill="#1D3362"/>
<path fill-rule="evenodd" clip-rule="evenodd" d="M130.49 102.206C130.036 102.575 129.553 102.905 129.045 103.195C128.379 103.581 127.682 103.91 126.961 104.18C126.115 104.499 125.244 104.747 124.356 104.921C123.384 105.116 122.395 105.213 121.403 105.211C119.177 105.262 116.963 104.862 114.896 104.035C113.176 103.331 111.628 102.266 110.356 100.912C109.154 99.6066 108.238 98.0645 107.667 96.3846C107.075 94.6571 106.776 92.8429 106.781 91.0168C106.774 89.1898 107.081 87.3751 107.689 85.6523C108.279 83.9657 109.218 82.4229 110.446 81.1249C111.75 79.7676 113.327 78.702 115.073 77.9983C117.141 77.1762 119.353 76.7776 121.577 76.8262C123.214 76.8034 124.847 76.9962 126.433 77.3994C127.788 77.7571 129.078 78.3265 130.255 79.0867L126.868 84.7636C126.128 84.3269 125.344 83.9686 124.53 83.6945C123.534 83.3939 122.495 83.2548 121.455 83.2824C120.523 83.2649 119.599 83.4552 118.75 83.8394C117.98 84.1964 117.3 84.7238 116.763 85.3818C116.207 86.0822 115.793 86.8852 115.546 87.7453C115.263 88.7279 115.125 89.7464 115.134 90.7689C115.123 91.8444 115.256 92.9166 115.53 93.9567C115.758 94.8646 116.165 95.7182 116.725 96.4683C117.257 97.1638 117.942 97.7269 118.728 98.1137C119.606 98.5277 120.568 98.7316 121.539 98.7094C123.026 98.7094 124.207 98.4947 125.081 98.0654C125.87 97.6963 126.629 97.2656 127.351 96.7774L130.49 102.206Z" fill="#1D3362"/>
<path fill-rule="evenodd" clip-rule="evenodd" d="M65.4205 66.9927C59.3703 66.9927 53.456 65.1986 48.4255 61.8374C43.395 58.4761 39.4742 53.6986 37.1589 48.109C34.8436 42.5194 34.2379 36.3687 35.4182 30.4348C36.5985 24.5009 39.5119 19.0503 43.79 14.7722C48.0681 10.4941 53.5187 7.58069 59.4526 6.40037C65.3865 5.22004 71.5372 5.82583 77.1268 8.14112C82.7164 10.4564 87.4939 14.3772 90.8552 19.4077C94.2165 24.4382 96.0105 30.3525 96.0105 36.4027C96.0105 44.5156 92.7877 52.2963 87.0509 58.0331C81.3142 63.7698 73.5335 66.9927 65.4205 66.9927ZM65.4205 0.580078C58.3394 0.580078 51.4173 2.67982 45.5296 6.61379C39.6418 10.5478 35.0528 16.1393 32.3429 22.6813C29.6329 29.2233 28.9237 36.422 30.3049 43.367C31.6861 50.3121 35.0957 56.6916 40.1026 61.6989C45.1094 66.7062 51.4887 70.1164 58.4336 71.4982C65.3786 72.8801 72.5773 72.1715 79.1195 69.4622C85.6618 66.7528 91.2537 62.1643 95.1882 56.2769C99.1227 50.3895 101.223 43.4676 101.224 36.3866C101.224 31.6845 100.298 27.0285 98.4993 22.6843C96.7002 18.34 94.063 14.3927 90.7383 11.0677C87.4137 7.74277 83.4666 5.10523 79.1225 3.30575C74.7785 1.50626 70.1225 0.580078 65.4205 0.580078Z" fill="#AD1E22"/>
<path fill-rule="evenodd" clip-rule="evenodd" d="M79.8847 56.8978C78.3745 58.2437 74.3495 63.4827 66.8888 60.662C62.4999 59.0037 57.9661 50.1905 67.3074 43.5476C72.7814 39.6611 76.3234 36.4475 77.3119 28.317C78.4743 18.657 70.5048 9.87924 65.4333 8.3916C65.4333 8.3916 70.1249 15.4982 64.4351 21.043C59.5697 25.7861 51.1977 29.2572 47.9229 41.5867C45.4178 50.9955 51.6839 62.8387 63.3274 64.2426C72.1277 65.302 78.381 59.5704 79.8847 56.8978Z" fill="#AD1E22"/>
<path fill-rule="evenodd" clip-rule="evenodd" d="M78.7907 33.5908C78.2568 35.2979 77.5602 36.9499 76.7106 38.5239C76.0666 39.7056 74.9653 40.9163 73.8898 42.0337C72.8144 43.151 70.8147 44.4358 70.2995 44.7578C64.6774 48.3288 62.5876 52.3409 64.8577 57.6378C65.6917 59.5698 67.4852 60.7645 69.501 61.3988C71.1786 61.9269 75.619 61.7788 78.2562 58.8228C79.1119 57.9009 79.8987 56.9172 80.61 55.8797C82.7359 52.4602 83.7066 48.4481 83.3791 44.435C83.0515 40.4219 81.443 36.6203 78.7907 33.5908Z" fill="#AD1E22"/>
<path fill-rule="evenodd" clip-rule="evenodd" d="M104.373 36.3313C104.365 43.9175 102.162 51.3393 98.0302 57.7014C93.8981 64.0634 88.0134 69.094 81.086 72.1861H101.327C110.807 62.6624 116.125 49.7691 116.116 36.3313C116.116 22.3629 110.32 9.70188 100.767 0H79.7852C94.8709 6.27257 104.373 20.3698 104.373 36.3313Z" fill="#1D3362"/>
<path fill-rule="evenodd" clip-rule="evenodd" d="M26.1174 36.3313C26.1253 43.9179 28.3285 51.3402 32.4612 57.7024C36.5939 64.0645 42.4795 69.0948 49.4077 72.1861H29.1667C19.6858 62.6627 14.3664 49.7695 14.374 36.3313C14.374 22.3629 19.9221 9.78882 29.7206 0H50.554C35.3492 6.34985 26.1174 20.3698 26.1174 36.3313Z" fill="#1D3362"/>
</g>
<defs>
<clipPath id="clip0_541_7654">
<rect width="130.491" height="120" fill="white"/>
</clipPath>
</defs>
</svg>
