<svg width="24" height="24" viewBox="0 0 24 24" fill="none" xmlns="http://www.w3.org/2000/svg">
<rect width="24" height="24" fill="white"/>
<g id="Design System">
<path d="M-4766 -7075C-4766 -7076.1 -4765.1 -7077 -4764 -7077H2983C2984.1 -7077 2985 -7076.1 2985 -7075V3473C2985 3474.1 2984.1 3475 2983 3475H-4764C-4765.1 3475 -4766 3474.1 -4766 3473V-7075Z" fill="#DEE9FF"/>
<g id="menu-1000w">
<rect width="999" height="80" transform="translate(-925 -28)" fill="white"/>
<g id="container">
<g id="action">
<g id="menu">
<path id="Vector" d="M4.125 7.125H19.875M4.125 12H19.875M4.125 16.875H19.875" stroke="#003A6A" stroke-width="3" stroke-miterlimit="10" stroke-linecap="round"/>
</g>
</g>
</g>
</g>
<path d="M-4764 -7076H2983V-7078H-4764V-7076ZM2984 -7075V3473H2986V-7075H2984ZM2983 3474H-4764V3476H2983V3474ZM-4765 3473V-7075H-4767V3473H-4765ZM-4764 3474C-4764.55 3474 -4765 3473.55 -4765 3473H-4767C-4767 3474.66 -4765.66 3476 -4764 3476V3474ZM2984 3473C2984 3473.55 2983.55 3474 2983 3474V3476C2984.66 3476 2986 3474.66 2986 3473H2984ZM2983 -7076C2983.55 -7076 2984 -7075.55 2984 -7075H2986C2986 -7076.66 2984.66 -7078 2983 -7078V-7076ZM-4764 -7078C-4765.66 -7078 -4767 -7076.66 -4767 -7075H-4765C-4765 -7075.55 -4764.55 -7076 -4764 -7076V-7078Z" fill="black" fill-opacity="0.1"/>
</g>
</svg>
