<svg width="97" height="97" viewBox="0 0 97 97" fill="none" xmlns="http://www.w3.org/2000/svg">
<path d="M0.0078125 92.4997H16.2449L26.762 74.3224L18.696 60.2295L0.0078125 92.4997Z" fill="#016BC3"/>
<path d="M70.2363 74.3224L80.7534 92.4997H96.9926L78.3034 60.2295L70.2363 74.3224Z" fill="#016BC3"/>
<path d="M48.5003 61.0568L54.524 67.0805L58.6074 62.9971L51.9709 51.5625C51.6041 51.6535 51.2258 51.6897 50.8484 51.6698H46.2541C45.8428 51.6849 45.4311 51.6489 45.0286 51.5625L38.4951 62.9961L42.5785 67.0795L48.5003 61.0568Z" fill="#016BC3"/>
<path d="M54.5229 73.3092L48.4959 67.2834L42.4765 73.3092L36.1448 66.9775L21.3447 92.4997H75.6558L60.8524 66.9775L54.5229 73.3092Z" fill="#016BC3"/>
<path d="M41.8634 35.9439C42.4761 36.0512 43.3948 36.1478 44.2115 36.2498L44.7223 45.7441C44.7514 46.5613 45.4365 47.2007 46.2537 47.1736H50.8479C51.6515 47.1655 52.316 46.5452 52.3794 45.7441L53.196 29.5124C53.2251 28.6952 53.9102 28.0558 54.7275 28.0829H61.3629C61.6847 28.0794 61.9701 27.8754 62.0776 27.5721L62.8943 25.326C63.0431 24.9386 62.8499 24.5041 62.4626 24.3553C62.3723 24.3206 62.2762 24.3036 62.1796 24.3054H60.7501V16.1385H73.0003L69.0189 10.2179L73.0003 4.5H57.6916V24.4073H46.3557C43.8465 24.4186 41.742 26.3038 41.4556 28.7966L40.8428 34.7183C40.8609 35.3129 41.282 35.8184 41.8634 35.9439Z" fill="#016BC3"/>
<path d="M48.4991 12.9736C51.2617 12.9736 53.5012 15.2131 53.5012 17.9757C53.5012 20.7382 51.2617 22.9777 48.4991 22.9777C45.7366 22.9777 43.4971 20.7382 43.4971 17.9757C43.4971 15.2131 45.7366 12.9736 48.4991 12.9736Z" fill="#016BC3"/>
</svg>
