<svg width="24" height="24" viewBox="0 0 24 24" fill="none" xmlns="http://www.w3.org/2000/svg">
<path d="M23.4081 20.58L18.3361 15.5C19.7001 13.4319 20.2479 10.931 19.8733 8.48203C19.4987 6.03306 18.2283 3.81033 16.3084 2.24454C14.3884 0.678762 11.9556 -0.118584 9.48135 0.00700742C7.00708 0.132599 4.6675 1.17219 2.91598 2.92433C1.16445 4.67647 0.12569 7.01641 0.000970034 9.49073C-0.12375 11.9651 0.674453 14.3976 2.24091 16.317C3.80737 18.2364 6.03055 19.5059 8.47966 19.8797C10.9288 20.2535 13.4294 19.7048 15.4971 18.34L20.5701 23.42C20.9487 23.7919 21.4583 24.0003 21.9891 24.0003C22.5199 24.0003 23.0294 23.7919 23.4081 23.42L23.4201 23.408C23.7934 23.0314 24.0019 22.5218 23.9997 21.9915C23.9974 21.4612 23.7846 20.9535 23.4081 20.58ZM4.00008 10C4.00008 8.81331 4.35197 7.65327 5.01126 6.66658C5.67055 5.67988 6.60762 4.91085 7.70398 4.45672C8.80034 4.0026 10.0067 3.88378 11.1706 4.11529C12.3345 4.3468 13.4036 4.91825 14.2427 5.75736C15.0818 6.59648 15.6533 7.66557 15.8848 8.82946C16.1163 9.99335 15.9975 11.1997 15.5434 12.2961C15.0892 13.3925 14.3202 14.3295 13.3335 14.9888C12.3468 15.6481 11.1868 16 10.0001 16C8.40878 16 6.88266 15.3679 5.75744 14.2426C4.63222 13.1174 4.00008 11.5913 4.00008 10Z" fill="#003A6A"/>
</svg>
