<svg width="97" height="97" viewBox="0 0 97 97" fill="none" xmlns="http://www.w3.org/2000/svg">
<g clip-path="url(#clip0_347_7196)">
<path d="M21.0395 40.4793C26.8102 40.4793 31.4883 35.7829 31.4883 29.9896C31.4883 24.1964 26.8102 19.5 21.0395 19.5C15.2689 19.5 10.5908 24.1964 10.5908 29.9896C10.5908 35.7829 15.2689 40.4793 21.0395 40.4793Z" fill="#016BC3"/>
<path d="M43.3706 58.8874C43.5109 57.9137 43.8992 56.9928 44.4979 56.2137C42.8218 56.2623 41.1524 55.9827 39.5828 55.3904C38.2512 54.7736 36.9196 51.4824 36.3052 50.043C36.0927 49.4335 35.8181 48.8475 35.4858 48.2945C34.4585 46.3409 32.3075 43.9756 28.0054 43.9756H14.6891C11.3072 43.9756 8.6453 45.7241 6.79793 49.1178L6.38787 49.9405C4.6497 53.2309 2.80444 56.6247 2.19147 59.1958C1.47422 61.8709 0.0397238 69.4796 -0.0624383 69.788C-0.464746 71.9701 0.947417 74.0739 3.11304 74.5186C3.37754 74.6031 3.65535 74.6379 3.93245 74.6212C5.85536 74.6232 7.49967 73.2333 7.82518 71.3307C7.82518 71.2281 9.36184 63.6209 9.97623 61.2527C10.3749 59.8923 10.9246 58.5812 11.615 57.344L11.1028 74.8263C11.0811 76.2721 12.2241 77.4652 13.6639 77.5H28.5176C29.9575 77.4652 31.1004 76.2721 31.0787 74.8263L30.3614 56.6247C31.5909 58.99 33.3319 61.4578 35.998 62.6921C38.771 63.7763 41.7298 64.3005 44.705 64.2348C43.4982 62.7363 43.01 60.7802 43.3706 58.8874Z" fill="#016BC3"/>
<path d="M75.9458 40.4793C81.7165 40.4793 86.3945 35.7829 86.3945 29.9896C86.3945 24.1964 81.7165 19.5 75.9458 19.5C70.1751 19.5 65.4971 24.1964 65.4971 29.9896C65.4971 35.7829 70.1751 40.4793 75.9458 40.4793Z" fill="#016BC3"/>
<path d="M97.0477 69.6855C96.9456 69.3771 95.5111 61.7634 94.7931 59.0933C94.1787 56.5221 92.3349 53.1284 90.5932 49.9405L90.1831 49.1178C88.3393 45.7227 85.6739 43.9756 82.292 43.9756H69.0828C64.7807 43.9756 62.6289 46.3409 61.6052 48.2945C61.4002 48.7062 61.093 49.323 60.7858 50.043C60.1714 51.4824 58.8398 54.7736 57.5082 55.3904C55.1521 56.5221 51.6694 56.213 50.5421 56.1105C48.3673 55.7555 46.3125 57.2222 45.9321 59.4009C45.5512 61.5692 46.9931 63.6368 49.1529 64.0194C49.1719 64.0227 49.1908 64.0259 49.2098 64.029C49.8242 64.1315 55.8679 65.0574 60.8873 62.6921C63.5505 61.4578 65.2922 58.99 66.5238 56.6247L66.0116 74.6212C65.9899 76.067 67.1328 77.2601 68.5727 77.2949H83.4263C84.8662 77.2601 86.0091 76.067 85.9874 74.6212L85.4724 57.1389C86.1451 58.3844 86.694 59.6934 87.1112 61.0469C87.7256 63.5147 89.2623 71.0202 89.2623 71.1249C89.6185 73.0096 91.2444 74.3839 93.155 74.4153C93.4321 74.4321 93.7099 74.3973 93.9744 74.3128C96.0816 73.9086 97.4634 71.8661 97.0608 69.7508C97.0566 69.729 97.0523 69.7072 97.0477 69.6855Z" fill="#016BC3"/>
</g>
<defs>
<clipPath id="clip0_347_7196">
<rect width="97" height="97" fill="white"/>
</clipPath>
</defs>
</svg>
